<svg
        width="236"
        height="58"
        style="margin-top: 2rem"
        viewBox="0 0 236 58"
        fill="none"
        xmlns="http://www.w3.org/2000/svg"
      >
        <rect x="38" width="160" height="58" rx="5" fill="#FFA62B" />
        <path
          d="M83.8195 32.068C84.8928 32.068 85.7701 31.6433 86.4515 30.794L87.8515 32.236C86.7408 33.4867 85.4295 34.112 83.9175 34.112C82.4148 34.112 81.1735 33.636 80.1935 32.684C79.2228 31.732 78.7375 30.5327 78.7375 29.086C78.7375 27.63 79.2321 26.4167 80.2215 25.446C81.2201 24.4753 82.4381 23.99 83.8755 23.99C85.4808 23.99 86.8248 24.6013 87.9075 25.824L86.5495 27.364C85.8588 26.5053 85.0001 26.076 83.9735 26.076C83.1521 26.076 82.4475 26.3467 81.8595 26.888C81.2808 27.42 80.9915 28.1433 80.9915 29.058C80.9915 29.9633 81.2668 30.6913 81.8175 31.242C82.3681 31.7927 83.0355 32.068 83.8195 32.068ZM90.9486 30.234C90.9486 30.85 91.1213 31.354 91.4666 31.746C91.8213 32.1287 92.2693 32.32 92.8106 32.32C93.3613 32.32 93.8093 32.1287 94.1546 31.746C94.5093 31.354 94.6866 30.85 94.6866 30.234C94.6866 29.618 94.5093 29.114 94.1546 28.722C93.8093 28.33 93.3613 28.134 92.8106 28.134C92.2693 28.134 91.8213 28.33 91.4666 28.722C91.1213 29.114 90.9486 29.618 90.9486 30.234ZM96.8006 30.234C96.8006 31.326 96.4226 32.2453 95.6666 32.992C94.9106 33.7387 93.9586 34.112 92.8106 34.112C91.6719 34.112 90.7246 33.7387 89.9686 32.992C89.2126 32.2453 88.8346 31.326 88.8346 30.234C88.8346 29.142 89.2126 28.2227 89.9686 27.476C90.7246 26.72 91.6719 26.342 92.8106 26.342C93.9586 26.342 94.9106 26.72 95.6666 27.476C96.4226 28.2227 96.8006 29.142 96.8006 30.234ZM100.66 29.8V34H98.5604V26.468H100.66V27.308C101.295 26.664 102.009 26.342 102.802 26.342C103.596 26.342 104.258 26.622 104.79 27.182C105.332 27.742 105.602 28.4887 105.602 29.422V34H103.502V29.744C103.502 28.5867 103.078 28.008 102.228 28.008C101.808 28.008 101.44 28.162 101.122 28.47C100.814 28.7687 100.66 29.212 100.66 29.8ZM110.098 27.98V31.354C110.098 31.6433 110.173 31.872 110.322 32.04C110.472 32.1987 110.649 32.278 110.854 32.278C111.246 32.278 111.578 32.1007 111.848 31.746L112.632 33.216C111.979 33.8133 111.288 34.112 110.56 34.112C109.842 34.112 109.23 33.874 108.726 33.398C108.232 32.922 107.984 32.2733 107.984 31.452V27.98H107.102V26.468H107.984V24.214H110.098V26.468H111.918V27.98H110.098ZM120.356 34H118.382V33.09C117.841 33.7713 117.169 34.112 116.366 34.112C115.573 34.112 114.906 33.8833 114.364 33.426C113.823 32.9593 113.552 32.3433 113.552 31.578C113.552 30.8033 113.832 30.2247 114.392 29.842C114.952 29.4593 115.718 29.268 116.688 29.268H118.256V29.226C118.256 28.4233 117.832 28.022 116.982 28.022C116.618 28.022 116.231 28.0967 115.82 28.246C115.419 28.386 115.078 28.5633 114.798 28.778L113.86 27.42C114.85 26.7013 115.979 26.342 117.248 26.342C118.163 26.342 118.91 26.5707 119.488 27.028C120.067 27.4853 120.356 28.2087 120.356 29.198V34ZM118.242 31.13V30.766H116.926C116.086 30.766 115.666 31.0273 115.666 31.55C115.666 31.8207 115.764 32.0307 115.96 32.18C116.166 32.32 116.455 32.39 116.828 32.39C117.202 32.39 117.528 32.278 117.808 32.054C118.098 31.8207 118.242 31.5127 118.242 31.13ZM126.083 32.25C126.783 32.25 127.413 31.9 127.973 31.2L129.219 32.6C128.248 33.608 127.198 34.112 126.069 34.112C124.94 34.112 123.983 33.7573 123.199 33.048C122.424 32.3293 122.037 31.396 122.037 30.248C122.037 29.0907 122.429 28.1527 123.213 27.434C124.006 26.706 124.944 26.342 126.027 26.342C126.568 26.342 127.114 26.454 127.665 26.678C128.225 26.902 128.715 27.2333 129.135 27.672L128.043 29.1C127.8 28.8107 127.502 28.5867 127.147 28.428C126.802 28.2693 126.456 28.19 126.111 28.19C125.56 28.19 125.084 28.372 124.683 28.736C124.291 29.0907 124.095 29.59 124.095 30.234C124.095 30.8687 124.291 31.3633 124.683 31.718C125.084 32.0727 125.551 32.25 126.083 32.25ZM133.325 27.98V31.354C133.325 31.6433 133.4 31.872 133.549 32.04C133.699 32.1987 133.876 32.278 134.081 32.278C134.473 32.278 134.805 32.1007 135.075 31.746L135.859 33.216C135.206 33.8133 134.515 34.112 133.787 34.112C133.069 34.112 132.457 33.874 131.953 33.398C131.459 32.922 131.211 32.2733 131.211 31.452V27.98H130.329V26.468H131.211V24.214H133.325V26.468H135.145V27.98H133.325ZM143.877 31.48C144.241 31.928 144.731 32.152 145.347 32.152C145.963 32.152 146.448 31.928 146.803 31.48C147.167 31.0227 147.349 30.402 147.349 29.618V24.214H149.533V29.688C149.533 31.1067 149.141 32.1987 148.357 32.964C147.573 33.72 146.569 34.098 145.347 34.098C144.124 34.098 143.116 33.7153 142.323 32.95C141.539 32.1847 141.147 31.0973 141.147 29.688V24.214H143.331V29.618C143.331 30.402 143.513 31.0227 143.877 31.48ZM157.269 31.662C157.269 32.3993 156.994 32.992 156.443 33.44C155.902 33.888 155.211 34.112 154.371 34.112C153.811 34.112 153.228 34.014 152.621 33.818C152.014 33.6127 151.468 33.314 150.983 32.922L151.907 31.606C152.691 32.2127 153.526 32.516 154.413 32.516C154.684 32.516 154.898 32.4647 155.057 32.362C155.216 32.25 155.295 32.1053 155.295 31.928C155.295 31.7507 155.183 31.5873 154.959 31.438C154.744 31.2887 154.427 31.1487 154.007 31.018C153.596 30.8873 153.279 30.7753 153.055 30.682C152.84 30.5887 152.593 30.4533 152.313 30.276C151.744 29.9213 151.459 29.3987 151.459 28.708C151.459 28.008 151.739 27.4387 152.299 27C152.859 26.5613 153.582 26.342 154.469 26.342C155.356 26.342 156.242 26.6407 157.129 27.238L156.345 28.638C155.692 28.19 155.038 27.966 154.385 27.966C153.741 27.966 153.419 28.1433 153.419 28.498C153.419 28.694 153.522 28.848 153.727 28.96C153.932 29.072 154.273 29.2027 154.749 29.352C155.225 29.5013 155.561 29.618 155.757 29.702C155.962 29.7767 156.205 29.898 156.485 30.066C157.008 30.3833 157.269 30.9153 157.269 31.662Z"
          fill="white"
        />
      </svg>